<?xml version="1.0" standalone="no"?>
<!DOCTYPE svg PUBLIC "-//W3C//DTD SVG 20010904//EN"
 "http://www.w3.org/TR/2001/REC-SVG-20010904/DTD/svg10.dtd">
<svg version="1.0" xmlns="http://www.w3.org/2000/svg"
 width="552.000000pt" height="155.000000pt" viewBox="0 0 552.000000 155.000000"
 preserveAspectRatio="xMidYMid meet">
<metadata>
Created by potrace 1.16, written by Peter Selinger 2001-2019
</metadata>
<g transform="translate(0.000000,155.000000) scale(0.100000,-0.100000)"
fill="#000000" stroke="none">
<path d="M2915 1358 c-3 -7 -4 -222 -3 -478 l3 -465 75 0 75 0 5 44 5 43 20
-22 c51 -58 187 -78 290 -43 68 23 136 92 165 169 45 120 24 287 -49 374 -89
109 -276 132 -391 49 l-40 -29 -2 183 -3 182 -73 3 c-52 2 -74 -1 -77 -10z
m422 -439 c101 -62 106 -255 11 -332 -81 -65 -207 -39 -255 53 -27 51 -32 151
-9 203 40 95 163 131 253 76z"/>
<path d="M689 1066 c-153 -59 -235 -208 -208 -377 18 -112 80 -199 177 -246
49 -24 69 -28 142 -27 68 0 95 5 133 23 78 38 169 155 141 180 -5 5 -33 17
-63 27 -42 15 -55 16 -59 6 -8 -24 -54 -73 -83 -87 -41 -22 -107 -18 -154 8
-105 59 -121 246 -29 326 42 37 69 45 136 39 43 -5 57 -11 82 -40 17 -19 36
-42 41 -52 9 -16 14 -15 73 5 34 11 62 25 62 30 0 20 -41 88 -71 118 -54 55
-104 74 -199 78 -56 2 -98 -2 -121 -11z"/>
<path d="M1337 1061 c-138 -56 -217 -188 -204 -342 10 -121 73 -215 179 -270
58 -30 183 -38 260 -15 69 20 148 88 186 160 24 46 27 61 27 156 0 90 -3 111
-23 148 -34 64 -89 120 -146 150 -70 35 -207 42 -279 13z m207 -136 c51 -24
86 -80 93 -146 10 -101 -26 -176 -101 -210 -86 -39 -177 -11 -223 69 -22 37
-27 58 -27 111 0 90 29 141 98 177 57 28 98 28 160 -1z"/>
<path d="M1810 750 l0 -330 74 0 74 0 4 198 c3 167 6 203 21 234 23 46 84 78
150 78 l47 0 0 75 0 75 -45 0 c-58 0 -109 -21 -146 -61 l-29 -31 0 46 0 46
-75 0 -75 0 0 -330z"/>
<path d="M2440 1063 c-147 -51 -228 -177 -218 -339 8 -127 64 -210 181 -272
48 -25 61 -27 162 -27 100 0 115 2 161 27 66 35 144 122 144 162 0 2 -30 11
-67 21 -47 13 -68 15 -71 7 -8 -26 -48 -65 -78 -78 -55 -23 -140 -18 -190 11
-43 25 -93 103 -79 125 4 6 95 10 252 10 l246 0 -5 73 c-9 136 -76 232 -192
276 -69 25 -179 28 -246 4z m171 -114 c44 -15 78 -46 95 -86 8 -18 14 -35 14
-38 0 -3 -74 -5 -165 -5 -151 0 -165 2 -165 18 0 22 31 69 59 89 46 32 107 40
162 22z"/>
<path d="M3612 748 l3 -333 70 0 70 0 3 333 2 332 -75 0 -75 0 2 -332z"/>
<path d="M3800 1015 l0 -65 205 0 c113 0 205 -2 205 -4 0 -2 -90 -93 -200
-202 l-201 -198 3 -66 3 -65 320 0 320 0 0 65 0 65 -204 5 -203 5 206 199 206
198 0 64 0 64 -330 0 -330 0 0 -65z"/>
</g>
</svg>
